<svg xmlns="http://www.w3.org/2000/svg" width="208.888" height="55" viewBox="0 0 208.888 55">
  <g id="logotipo" transform="translate(-153.759 -205.658)">
    <g id="Grupo_1" data-name="Grupo 1" transform="translate(228.558 226.054)">
      <path id="Trazado_2" data-name="Trazado 2" d="M230.328,234.4a7.577,7.577,0,0,1-2.48,1.977,7.039,7.039,0,0,1-3.213.733,7.372,7.372,0,0,1-5.16-2.062,7.048,7.048,0,0,1-1.551-2.241,7.041,7.041,0,0,1,0-5.539,7.106,7.106,0,0,1,3.865-3.759,7.435,7.435,0,0,1,2.846-.545,7.055,7.055,0,0,1,3.213.734,7.438,7.438,0,0,1,2.43,1.909l-1.825,1.875a4.777,4.777,0,0,0-1.628-1.457,4.6,4.6,0,0,0-3.987-.187,4.784,4.784,0,0,0-1.475.988,4.692,4.692,0,0,0-1,1.449,4.321,4.321,0,0,0-.366,1.764,4.276,4.276,0,0,0,.366,1.747,4.665,4.665,0,0,0,1,1.449,4.787,4.787,0,0,0,1.475.989,4.454,4.454,0,0,0,1.8.366,4.319,4.319,0,0,0,2.233-.571,5.1,5.1,0,0,0,1.62-1.507Z" transform="translate(-217.357 -222.962)" fill="#5f5e5e"/>
      <path id="Trazado_3" data-name="Trazado 3" d="M240.514,230.037a4.368,4.368,0,0,0-.358-1.764,4.619,4.619,0,0,0-.982-1.449,4.722,4.722,0,0,0-1.461-.989,4.528,4.528,0,0,0-3.568,0,4.737,4.737,0,0,0-1.461.989,4.635,4.635,0,0,0-.981,1.449,4.489,4.489,0,0,0,0,3.519,4.605,4.605,0,0,0,.981,1.457,4.737,4.737,0,0,0,1.461.989,4.528,4.528,0,0,0,3.568,0,4.722,4.722,0,0,0,1.461-.989,4.589,4.589,0,0,0,.982-1.457,4.39,4.39,0,0,0,.358-1.756m2.643,0a6.75,6.75,0,0,1-.571,2.761,7.053,7.053,0,0,1-1.557,2.251,7.469,7.469,0,0,1-2.3,1.509,7.341,7.341,0,0,1-5.593,0,7.452,7.452,0,0,1-2.307-1.509,7.062,7.062,0,0,1-1.558-2.241,7.037,7.037,0,0,1,0-5.549,7.046,7.046,0,0,1,1.558-2.249,7.337,7.337,0,0,1,5.107-2.046,7.19,7.19,0,0,1,2.792.545,7.263,7.263,0,0,1,2.3,1.509,7.171,7.171,0,0,1,1.557,2.251,6.732,6.732,0,0,1,.571,2.769" transform="translate(-215.378 -222.962)" fill="#5f5e5e"/>
      <path id="Trazado_4" data-name="Trazado 4" d="M254.189,230.037a4.368,4.368,0,0,0-.358-1.764,4.619,4.619,0,0,0-.982-1.449,4.723,4.723,0,0,0-1.461-.989,4.528,4.528,0,0,0-3.568,0,4.736,4.736,0,0,0-1.461.989,4.634,4.634,0,0,0-.981,1.449,4.488,4.488,0,0,0,0,3.519,4.6,4.6,0,0,0,.981,1.457,4.736,4.736,0,0,0,1.461.989,4.528,4.528,0,0,0,3.568,0,4.723,4.723,0,0,0,1.461-.989,4.589,4.589,0,0,0,.982-1.457,4.39,4.39,0,0,0,.358-1.756m2.643,0a6.75,6.75,0,0,1-.571,2.761,7.053,7.053,0,0,1-1.557,2.251,7.469,7.469,0,0,1-2.3,1.509,7.341,7.341,0,0,1-5.593,0,7.437,7.437,0,0,1-2.307-1.509,7.062,7.062,0,0,1-1.558-2.241,7.037,7.037,0,0,1,0-5.549,7.045,7.045,0,0,1,1.558-2.249,7.337,7.337,0,0,1,5.107-2.046,7.19,7.19,0,0,1,2.792.545,7.264,7.264,0,0,1,2.3,1.509,7.171,7.171,0,0,1,1.557,2.251,6.733,6.733,0,0,1,.571,2.769" transform="translate(-212.995 -222.962)" fill="#5f5e5e"/>
      <path id="Trazado_5" data-name="Trazado 5" d="M263.409,227.73a2.507,2.507,0,0,0-.733-1.789,2.594,2.594,0,0,0-.8-.545,2.393,2.393,0,0,0-.988-.2h-1.756v5.147h1.756a2.309,2.309,0,0,0,.988-.213,2.587,2.587,0,0,0,.8-.571,2.706,2.706,0,0,0,.537-.826,2.571,2.571,0,0,0,.2-1m2.643.034a4.506,4.506,0,0,1-.367,1.815,4.64,4.64,0,0,1-1,1.465,4.547,4.547,0,0,1-1.486.973,4.742,4.742,0,0,1-1.812.349h-2.255v4.449H256.49V223.2h4.9a4.741,4.741,0,0,1,1.811.349,4.646,4.646,0,0,1,1.485.963,4.578,4.578,0,0,1,1,1.449,4.447,4.447,0,0,1,.367,1.807" transform="translate(-210.547 -222.922)" fill="#5f5e5e"/>
    </g>
    <path id="Trazado_6" data-name="Trazado 6" d="M275.1,236.815h-9V223.2h9v2.183h-6.409v3.255h6.323v2.131h-6.323v3.75H275.1Z" transform="translate(19.684 3.132)" fill="#5f5e5e"/>
    <g id="Grupo_2" data-name="Grupo 2" transform="translate(296.87 226.311)">
      <path id="Trazado_7" data-name="Trazado 7" d="M282.34,227.289a2.061,2.061,0,0,0-.179-.868,2.153,2.153,0,0,0-.486-.681,2.224,2.224,0,0,0-.724-.454,2.486,2.486,0,0,0-.9-.162h-1.909v4.244h1.909a2.729,2.729,0,0,0,.9-.143,2.143,2.143,0,0,0,.724-.418,1.98,1.98,0,0,0,.665-1.518m3.443,9.528h-2.91l-.969-3.1a4.926,4.926,0,0,0-.383-.936,2.9,2.9,0,0,0-.552-.734,2.273,2.273,0,0,0-.774-.479,3.036,3.036,0,0,0-1.063-.17h-.987v5.42h-2.608V223.2l5.377-.015a4.35,4.35,0,0,1,1.616.3,3.884,3.884,0,0,1,1.293.827,3.8,3.8,0,0,1,.851,1.244,3.909,3.909,0,0,1,.305,1.551,3.674,3.674,0,0,1-.186,1.16,3.877,3.877,0,0,1-.525,1.039,4.058,4.058,0,0,1-.8.843,3.381,3.381,0,0,1-1.025.555,2.582,2.582,0,0,1,1.05.691,3.369,3.369,0,0,1,.644,1.081c.08.194.152.387.221.579s.138.4.211.605.153.439.238.683.178.513.28.81c.124.373.241.7.349.963a4.718,4.718,0,0,0,.35.706" transform="translate(-275.539 -223.182)" fill="#5f5e5e"/>
    </g>
    <path id="Trazado_8" data-name="Trazado 8" d="M294.42,231.892l-2.267-4.908-2.3,4.908Zm5.2,4.925h-2.9l-1.26-2.726h-6.614l-1.278,2.726h-2.9l6.443-13.635h2.062Z" transform="translate(22.933 3.129)" fill="#5f5e5e"/>
    <path id="Trazado_9" data-name="Trazado 9" d="M306.2,225.548h-3.767v11.267h-2.675V225.548h-3.767V223.2H306.2Z" transform="translate(24.892 3.132)" fill="#5f5e5e"/>
    <rect id="Rectángulo_1" data-name="Rectángulo 1" width="2.641" height="13.619" transform="translate(332.954 226.328)" fill="#5f5e5e"/>
    <path id="Trazado_10" data-name="Trazado 10" d="M322.53,223.181l-5.165,13.636h-2.42l-5.284-13.636h2.932l3.546,9.579,3.494-9.579Z" transform="translate(27.384 3.129)" fill="#5f5e5e"/>
    <path id="Trazado_11" data-name="Trazado 11" d="M328.513,231.892l-2.267-4.908-2.3,4.908Zm5.2,4.925h-2.9l-1.26-2.726H322.94l-1.278,2.726h-2.9l6.443-13.635h2.062Z" transform="translate(28.935 3.129)" fill="#5f5e5e"/>
    <g id="Grupo_3" data-name="Grupo 3" transform="translate(153.759 205.658)">
      <path id="Trazado_12" data-name="Trazado 12" d="M226.289,212.233h-.59a.223.223,0,0,0-.222.222v4.118a2.132,2.132,0,1,1-4.264,0v-4.118a.221.221,0,0,0-.221-.222H220.4a.222.222,0,0,0-.222.222v4.118a3.164,3.164,0,1,0,6.328,0v-4.118a.221.221,0,0,0-.221-.222" transform="translate(-142.12 -204.394)" fill="#5f5e5e"/>
      <path id="Trazado_13" data-name="Trazado 13" d="M237.622,212.233h-.589a.223.223,0,0,0-.222.222v5.088L231.9,212.3a.222.222,0,0,0-.384.152v7.061a.222.222,0,0,0,.222.222h.589a.222.222,0,0,0,.221-.222v-5.088l4.913,5.24a.221.221,0,0,0,.161.07l.082-.016a.219.219,0,0,0,.14-.206v-7.061a.222.222,0,0,0-.222-.222" transform="translate(-140.134 -204.394)" fill="#5f5e5e"/>
      <path id="Trazado_14" data-name="Trazado 14" d="M243.658,212.233h-.589a.222.222,0,0,0-.221.222v7.061a.222.222,0,0,0,.221.222h.589a.222.222,0,0,0,.222-.222v-7.061a.222.222,0,0,0-.222-.222" transform="translate(-138.159 -204.394)" fill="#5f5e5e"/>
      <path id="Trazado_15" data-name="Trazado 15" d="M256.939,212.233h-.676a.221.221,0,0,0-.2.123l-2.657,5.311-2.656-5.311a.223.223,0,0,0-.2-.123h-.676a.222.222,0,0,0-.2.322l3.2,6.383.335.678a.221.221,0,0,0,.2.123h0a.22.22,0,0,0,.2-.122l3.532-7.063a.223.223,0,0,0-.2-.321" transform="translate(-136.952 -204.394)" fill="#5f5e5e"/>
      <path id="Trazado_16" data-name="Trazado 16" d="M266.926,212.233h-4.708a.222.222,0,0,0-.221.222v7.061a.222.222,0,0,0,.221.222h4.708a.222.222,0,0,0,.222-.222v-.588a.222.222,0,0,0-.222-.222h-3.9v-2.2h3.9a.221.221,0,0,0,.222-.221v-.589a.222.222,0,0,0-.222-.222h-3.9v-2.2h3.9a.222.222,0,0,0,.222-.222v-.588a.222.222,0,0,0-.222-.222" transform="translate(-134.795 -204.394)" fill="#5f5e5e"/>
      <path id="Trazado_17" data-name="Trazado 17" d="M273.355,213.265h1.985c.763,0,1.1.341,1.1,1.1s-.339,1.1-1.1,1.1h-1.985Zm1.62,3.236h.365a2.134,2.134,0,1,0,0-4.268h-2.795a.222.222,0,0,0-.222.222v7.061a.222.222,0,0,0,.222.222h.588a.222.222,0,0,0,.222-.222V216.5h.266l2.759,3.161a.225.225,0,0,0,.167.076h.765a.22.22,0,0,0,.2-.13.223.223,0,0,0-.034-.238Z" transform="translate(-132.986 -204.394)" fill="#5f5e5e"/>
      <path id="Trazado_18" data-name="Trazado 18" d="M285.746,215.549l-1.268-.624a.726.726,0,0,1-.4-.38,1.318,1.318,0,0,1-.095-.41.829.829,0,0,1,.095-.383.76.76,0,0,1,.383-.408,1.377,1.377,0,0,1,.407-.094.894.894,0,0,1,.393.1.806.806,0,0,1,.424.452.223.223,0,0,0,.329.1l.5-.33a.221.221,0,0,0,.078-.281,1.856,1.856,0,0,0-.878-.874,1.813,1.813,0,0,0-1.461-.092,1.928,1.928,0,0,0-1.3,1.8,1.911,1.911,0,0,0,.111.631,1.827,1.827,0,0,0,.967,1.1l1.265.624a1.12,1.12,0,0,1,.595.674,1.187,1.187,0,0,1,.069.386,1.133,1.133,0,0,1-.124.509.979.979,0,0,1-.518.541,1.778,1.778,0,0,1-.547.123,1.167,1.167,0,0,1-.516-.125,1.117,1.117,0,0,1-.584-.639l-.025-.105a.228.228,0,0,0-.139-.143.221.221,0,0,0-.2.026l-.507.342a.223.223,0,0,0-.083.263,2.132,2.132,0,0,0,1.083,1.186,2.2,2.2,0,0,0,.961.228,2.287,2.287,0,0,0,.732-.124,2.143,2.143,0,0,0,1.27-1.12,2.215,2.215,0,0,0,.227-.961,2.253,2.253,0,0,0-.124-.727,2.163,2.163,0,0,0-1.117-1.262" transform="translate(-131.171 -204.397)" fill="#5f5e5e"/>
      <path id="Trazado_19" data-name="Trazado 19" d="M292.511,219.739h.589a.222.222,0,0,0,.221-.221v-7.062a.222.222,0,0,0-.221-.222h-.589a.222.222,0,0,0-.222.222v7.062a.222.222,0,0,0,.222.221" transform="translate(-129.502 -204.394)" fill="#5f5e5e"/>
      <path id="Trazado_20" data-name="Trazado 20" d="M301.42,218.706h-1.291v-5.441h1.291a2.721,2.721,0,1,1,0,5.441m2.656-5.375a3.628,3.628,0,0,0-2.656-1.1h-2.1a.222.222,0,0,0-.221.222v7.061a.222.222,0,0,0,.221.222h2.1a3.755,3.755,0,0,0,2.656-6.408" transform="translate(-128.175 -204.394)" fill="#5f5e5e"/>
      <path id="Trazado_21" data-name="Trazado 21" d="M314.991,216.353h-2.048l1.024-2.047Zm-.485-3.32-.342-.676a.221.221,0,0,0-.2-.122h0a.221.221,0,0,0-.2.123l-3.53,7.061a.221.221,0,0,0,.2.321h.676a.221.221,0,0,0,.2-.123l1.115-2.231h3.08l1.115,2.231a.222.222,0,0,0,.2.123h.676a.221.221,0,0,0,.2-.32Z" transform="translate(-126.281 -204.394)" fill="#5f5e5e"/>
      <path id="Trazado_22" data-name="Trazado 22" d="M324.877,218.706h-1.292v-5.441h1.292a2.721,2.721,0,0,1,0,5.441m-2.1,1.032h2.1a3.753,3.753,0,1,0,0-7.506h-2.1a.223.223,0,0,0-.222.222v7.062a.223.223,0,0,0,.222.221" transform="translate(-124.179 -204.394)" fill="#5f5e5e"/>
      <path id="Trazado_23" data-name="Trazado 23" d="M225.332,243.121a2.719,2.719,0,0,1-2.72,2.72h-1.291V240.4h1.291a2.719,2.719,0,0,1,2.72,2.721m-2.72-3.753h-2.1a.222.222,0,0,0-.222.222v7.062a.222.222,0,0,0,.222.221h2.1a3.753,3.753,0,1,0,0-7.506" transform="translate(-142.101 -199.771)" fill="#5f5e5e"/>
      <path id="Trazado_24" data-name="Trazado 24" d="M236.8,239.368H232.09a.222.222,0,0,0-.221.222v7.062a.222.222,0,0,0,.221.221H236.8a.222.222,0,0,0,.222-.221v-.589a.222.222,0,0,0-.222-.222h-3.9v-2.2h3.9a.222.222,0,0,0,.222-.222v-.589a.222.222,0,0,0-.222-.221h-3.9v-2.2h3.9a.222.222,0,0,0,.222-.221v-.589a.222.222,0,0,0-.222-.222" transform="translate(-140.074 -199.771)" fill="#5f5e5e"/>
      <path id="Trazado_25" data-name="Trazado 25" d="M251.146,240.4a2.61,2.61,0,0,1,1.924.793,2.737,2.737,0,0,1,.617.932.224.224,0,0,0,.307.117l.529-.266a.222.222,0,0,0,.107-.282,3.787,3.787,0,0,0-.826-1.232,3.756,3.756,0,1,0,0,5.311,3.737,3.737,0,0,0,.826-1.228.221.221,0,0,0-.107-.281l-.529-.266a.223.223,0,0,0-.179-.009.226.226,0,0,0-.128.126,2.716,2.716,0,0,1-.616.926,2.72,2.72,0,1,1-1.925-4.642" transform="translate(-137.349 -199.771)" fill="#5f5e5e"/>
      <path id="Trazado_26" data-name="Trazado 26" d="M263.082,245.841a2.719,2.719,0,1,1,1.924-.8,2.6,2.6,0,0,1-1.924.8m0-6.473a3.748,3.748,0,1,0,2.656,1.1,3.637,3.637,0,0,0-2.656-1.1" transform="translate(-135.257 -199.771)" fill="#5f5e5e"/>
      <path id="Trazado_27" data-name="Trazado 27" d="M276.24,245.841h-3.31v-6.252a.221.221,0,0,0-.221-.221h-.589a.222.222,0,0,0-.221.221v7.063a.222.222,0,0,0,.221.221h4.12a.222.222,0,0,0,.222-.221v-.59a.222.222,0,0,0-.222-.221" transform="translate(-133.062 -199.771)" fill="#5f5e5e"/>
      <path id="Trazado_28" data-name="Trazado 28" d="M284.109,245.841a2.719,2.719,0,1,1,1.924-.8,2.6,2.6,0,0,1-1.924.8m0-6.473a3.748,3.748,0,1,0,2.656,1.1,3.634,3.634,0,0,0-2.656-1.1" transform="translate(-131.571 -199.771)" fill="#5f5e5e"/>
      <path id="Trazado_29" data-name="Trazado 29" d="M298.5,239.369a.221.221,0,0,0-.229.136l-2.09,5.016-2.09-5.016a.221.221,0,0,0-.422.046l-1.236,7.063a.219.219,0,0,0,.048.18.221.221,0,0,0,.17.08h.618a.223.223,0,0,0,.219-.185l.714-4.191,1.775,4.239a.231.231,0,0,0,.41,0l1.777-4.239.713,4.191a.223.223,0,0,0,.219.185h.618a.223.223,0,0,0,.219-.26l-1.236-7.063a.222.222,0,0,0-.194-.181" transform="translate(-129.455 -199.771)" fill="#5f5e5e"/>
      <path id="Trazado_30" data-name="Trazado 30" d="M307.434,242.6H305.89v-2.2h1.544c.762,0,1.1.339,1.1,1.1s-.339,1.1-1.1,1.1m.441,3.237H305.89v-2.2h1.985c.762,0,1.1.341,1.1,1.1s-.341,1.1-1.1,1.1m1.3-2.922a2.328,2.328,0,0,0,.393-1.416,1.909,1.909,0,0,0-2.135-2.135H305.08a.222.222,0,0,0-.222.221v7.062a.222.222,0,0,0,.222.222h2.795a1.909,1.909,0,0,0,2.135-2.135,1.972,1.972,0,0,0-.834-1.82" transform="translate(-127.193 -199.771)" fill="#5f5e5e"/>
      <path id="Trazado_31" data-name="Trazado 31" d="M316.182,239.368h-.589a.222.222,0,0,0-.221.222v7.062a.222.222,0,0,0,.221.221h.589a.222.222,0,0,0,.222-.221V239.59a.222.222,0,0,0-.222-.222" transform="translate(-125.402 -199.771)" fill="#5f5e5e"/>
      <path id="Trazado_32" data-name="Trazado 32" d="M326.719,243.488h-2.048l1.024-2.048Zm2.706,3.065-3.19-6.387-.342-.676a.222.222,0,0,0-.4,0l-3.53,7.061a.221.221,0,0,0,.2.321h.676a.22.22,0,0,0,.2-.123l1.115-2.231h3.08l1.117,2.231a.219.219,0,0,0,.2.123h.676a.221.221,0,0,0,.2-.321" transform="translate(-124.283 -199.771)" fill="#5f5e5e"/>
      <path id="Trazado_33" data-name="Trazado 33" d="M166.092,205.535h20.062v30.926a10.031,10.031,0,1,1-20.062,0Z" transform="translate(-151.658 -205.535)" fill="#80ba27"/>
      <path id="Trazado_34" data-name="Trazado 34" d="M213.694,252.567a25.17,25.17,0,0,1-20.2-10.122,16.5,16.5,0,0,1-31.711-6.373V205.535h-8.028V236a24.536,24.536,0,0,0,24.535,24.535h37.784v-8.084c-.785.074-1.58.116-2.384.116" transform="translate(-153.759 -205.535)" fill="#00acc9"/>
      <path id="Trazado_35" data-name="Trazado 35" d="M195.315,205.535h-7.656v6.83a25.327,25.327,0,0,1,7.656-6.83" transform="translate(-147.818 -205.535)" fill="#00acc9"/>
      <path id="Trazado_36" data-name="Trazado 36" d="M210.138,239.852a13.1,13.1,0,1,1,0-25.768V207.99a19.131,19.131,0,1,0,0,37.956Z" transform="translate(-147.636 -205.143)" fill="#80ba27"/>
      <path id="Trazado_37" data-name="Trazado 37" d="M208.732,230.055a5.086,5.086,0,1,1,0-8.985v-4.681a9.476,9.476,0,1,0,0,18.349Z" transform="translate(-146.198 -203.737)" fill="#cad400"/>
      <path id="Trazado_38" data-name="Trazado 38" d="M207.775,224.539a2.448,2.448,0,1,1-2.448-2.448,2.449,2.449,0,0,1,2.448,2.448" transform="translate(-145.153 -202.715)" fill="#00acc9"/>
    </g>
  </g>
</svg>
